<?xml version="1.0" standalone="no"?>
<!DOCTYPE svg PUBLIC "-//W3C//DTD SVG 20010904//EN"
 "http://www.w3.org/TR/2001/REC-SVG-20010904/DTD/svg10.dtd">
<svg version="1.0" xmlns="http://www.w3.org/2000/svg"
 width="700.000000pt" height="700.000000pt" viewBox="0 0 700.000000 700.000000"
 preserveAspectRatio="xMidYMid meet">
<metadata>
Created by potrace 1.14, written by Peter Selinger 2001-2017
</metadata>
<g transform="translate(0.000000,700.000000) scale(0.100000,-0.100000)"
fill="#000000" stroke="none">
<path d="M0 3500 l0 -3500 3500 0 3500 0 0 3500 0 3500 -3500 0 -3500 0 0
-3500z m1785 1299 c28 -5 106 -16 175 -25 119 -15 298 -38 515 -69 55 -7 159
-21 230 -30 228 -28 228 -28 120 -59 -33 -9 -80 -23 -105 -31 -25 -7 -61 -17
-80 -21 -19 -3 -41 -10 -50 -15 -14 -8 -75 -25 -175 -50 -80 -19 -86 -26 -83
-93 l3 -60 77 -46 c180 -106 297 -251 370 -460 20 -58 22 -84 23 -235 0 -150
-3 -178 -23 -241 -36 -110 -98 -220 -172 -303 l-30 -34 0 -418 0 -419 -640 0
-639 0 -3 148 -3 147 -115 6 c-155 7 -209 26 -276 94 -71 73 -94 142 -94 282
l0 103 -150 0 c-163 0 -155 -3 -129 55 4 11 15 38 22 60 66 192 81 234 93 262
8 17 14 36 14 41 0 6 5 23 11 39 44 106 61 168 69 238 11 111 36 203 76 286
35 71 105 174 133 196 13 9 16 38 16 170 l0 158 -65 17 c-36 9 -78 21 -93 27
-54 21 -57 18 -57 -68 0 -44 5 -83 10 -86 16 -10 12 -45 -5 -45 -12 0 -15 -19
-17 -102 l-2 -103 -3 103 c-2 56 -8 102 -13 102 -16 0 -11 40 5 46 12 5 15 24
15 88 l0 82 -62 17 c-35 10 -94 27 -133 38 -38 11 -87 25 -109 31 l-39 12 59
13 c33 6 115 19 184 29 131 17 222 30 460 63 80 12 199 28 265 36 66 8 138 19
160 25 77 19 161 19 260 -1z m3725 -948 c71 -16 130 -48 130 -71 0 -25 -2 -25
-69 7 -142 68 -316 24 -395 -100 -28 -45 -56 -138 -56 -187 0 -49 28 -142 56
-187 27 -42 74 -82 124 -106 69 -34 196 -31 269 5 30 15 58 25 63 22 33 -21
-39 -70 -120 -81 -23 -3 -45 -10 -48 -14 -3 -5 -20 -9 -39 -9 -19 0 -36 4 -39
9 -3 4 -25 11 -50 14 -82 12 -178 90 -227 186 -21 40 -24 60 -24 156 0 98 3
116 26 165 28 59 96 133 141 153 15 6 28 15 28 19 0 4 23 10 50 14 28 4 53 11
56 16 7 10 48 7 124 -11z m615 9 c3 -5 18 -10 33 -10 65 0 176 -88 212 -168
12 -26 26 -55 31 -65 13 -24 13 -214 1 -230 -5 -7 -15 -29 -21 -50 -26 -78
-155 -187 -224 -187 -14 0 -29 -4 -32 -10 -3 -5 -24 -10 -45 -10 -21 0 -42 5
-45 10 -3 6 -18 10 -33 10 -68 0 -179 91 -221 180 -23 49 -26 67 -26 170 0
103 3 121 26 170 43 90 153 180 221 180 15 0 30 5 33 10 3 6 24 10 45 10 21 0
42 -4 45 -10z m-2637 -32 c3 -16 -12 -18 -180 -20 l-183 -3 -3 -132 -3 -132
158 -3 c155 -3 158 -3 161 -25 l3 -23 -161 0 -161 0 3 -147 3 -148 183 -3
c168 -2 183 -4 180 -20 -3 -15 -23 -17 -202 -20 -153 -2 -201 1 -208 10 -9 15
-11 648 -2 672 6 14 31 16 208 14 181 -3 201 -5 204 -20z m577 -6 c54 -28 108
-86 136 -147 21 -44 24 -65 24 -175 0 -114 -2 -130 -26 -180 -31 -67 -77 -114
-138 -143 -42 -20 -62 -22 -221 -22 l-175 0 -3 335 c-1 184 0 341 3 348 4 11
40 13 183 10 155 -4 182 -7 217 -26z m375 -233 c5 -276 4 -270 69 -342 99
-110 280 -79 345 57 13 28 16 76 16 279 0 202 3 247 15 257 31 26 35 1 35
-244 0 -236 -1 -245 -24 -298 -31 -69 -103 -136 -158 -144 -21 -4 -38 -10 -38
-15 0 -12 -67 -11 -75 1 -3 6 -15 10 -27 10 -45 0 -126 56 -162 112 -34 55
-46 144 -46 357 0 205 5 238 35 228 6 -2 12 -95 15 -258z"/>
<path d="M1910 4373 c-171 -26 -366 -125 -466 -236 -82 -91 -155 -211 -169
-277 -4 -19 -11 -39 -15 -45 -10 -12 -30 -141 -30 -190 0 -19 -4 -43 -9 -53
-5 -9 -22 -53 -36 -97 -15 -44 -31 -89 -36 -100 -5 -11 -15 -40 -23 -65 -8
-25 -34 -102 -59 -172 -25 -69 -43 -129 -39 -132 3 -3 67 -6 143 -6 l137 0 4
-147 3 -148 33 -48 c70 -101 137 -127 327 -127 l115 0 0 -149 c0 -127 2 -150
16 -155 20 -8 708 -8 728 0 14 5 16 52 16 419 0 408 0 412 21 431 35 31 99
121 130 184 29 59 52 132 71 225 12 57 4 270 -10 288 -5 7 -13 30 -16 52 -10
53 -77 187 -123 244 -133 166 -291 259 -513 301 -45 9 -154 11 -200 3z m95
-195 c11 1 46 5 78 8 56 6 117 -8 117 -26 0 -4 30 -10 66 -12 65 -4 67 -5 113
-55 25 -27 55 -53 66 -57 33 -10 68 -72 72 -129 2 -29 10 -63 16 -76 21 -42
15 -132 -10 -168 -13 -17 -23 -38 -23 -47 0 -30 -38 -78 -88 -112 -28 -18 -62
-48 -75 -66 -26 -36 -57 -99 -57 -117 0 -7 -26 -11 -70 -11 l-70 0 0 94 c0 72
-5 105 -20 141 -24 56 -37 69 -106 111 -48 29 -58 32 -85 22 -17 -6 -54 -8
-87 -4 -31 4 -68 6 -82 5 -14 -1 -56 -3 -93 -3 -68 -1 -69 -1 -107 40 -70 76
-67 159 9 233 27 26 51 56 55 67 12 40 71 85 117 91 30 4 54 15 76 35 36 35
83 49 133 41 19 -4 44 -6 55 -5z m-472 -619 c28 -35 19 -118 -17 -141 -6 -4
-30 -8 -53 -8 -76 0 -117 74 -76 136 9 14 26 30 37 35 32 13 89 2 109 -22z"/>
<path d="M916 3569 c-45 -53 -44 -95 2 -151 17 -21 72 -33 107 -24 74 19 100
117 46 175 -25 27 -36 31 -79 31 -44 0 -54 -4 -76 -31z"/>
<path d="M5964 3795 c-100 -46 -174 -172 -174 -295 0 -24 9 -73 20 -110 38
-129 143 -210 272 -210 106 0 185 48 245 148 27 45 28 53 28 172 0 119 -1 127
-28 172 -38 64 -73 97 -132 124 -69 33 -161 32 -231 -1z"/>
<path d="M3713 3803 c-10 -3 -13 -74 -13 -303 0 -262 2 -299 16 -304 35 -13
255 -6 305 10 101 33 164 146 164 294 0 155 -63 261 -176 294 -50 15 -265 22
-296 9z"/>
</g>
</svg>
