<svg width="44" height="37" viewBox="0 0 44 37" fill="none" xmlns="http://www.w3.org/2000/svg">
<path d="M4.66659 0.583374C2.28325 0.583374 0.333252 2.19587 0.333252 4.16671V18.5C0.333252 20.4709 2.28325 22.0834 4.66659 22.0834H17.6666V32.8334C17.6666 34.8042 19.6166 36.4167 21.9999 36.4167H39.3333C41.7166 36.4167 43.6666 34.8042 43.6666 32.8334V18.5C43.6666 16.5292 41.7166 14.9167 39.3333 14.9167H26.3333V4.16671C26.3333 2.19587 24.3833 0.583374 21.9999 0.583374H4.66659ZM11.5474 4.16671H15.0767L20.3961 15.1792C19.0146 15.6385 17.9907 16.6674 17.7385 17.9122L16.3801 14.9167H10.2525L8.62752 18.528L4.66659 18.5L11.5474 4.16671ZM13.3333 7.75004L11.1666 13.125H15.4999L13.3333 7.75004ZM29.9514 18.5035C31.9072 18.4392 33.1591 19.9908 33.1591 19.9908V20.6661C33.1591 20.6661 32.3405 19.9908 30.7047 19.9908C30.2475 19.9908 29.1437 20.3195 28.94 21.2995C28.719 22.3656 30.9451 22.6958 31.5214 22.6958C33.1572 22.6958 34.9957 22.0554 34.9957 22.0554L33.7812 25.6667C33.7812 25.6667 32.3088 24.5153 29.8583 25.1908C28.125 25.6692 27.8146 27.6658 28.1656 28.2982C29.8556 31.3512 37.1666 31.0417 37.1666 31.0417C37.1666 31.0417 35.0337 32.8334 30.7047 32.8334C27.823 32.8334 24.1666 31.4813 24.1666 28.7776C24.1666 26.074 27.4377 24.7219 27.4377 24.7219C27.4377 24.7219 26.593 23.7521 26.4348 23.3991C25.7913 21.9712 26.6185 19.312 29.0712 18.6365C29.3778 18.5521 29.672 18.5127 29.9514 18.5035Z" fill="#1F59B6"/>
</svg>
