<svg id="svg" version="1.1" xmlns="http://www.w3.org/2000/svg" xmlns:xlink="http://www.w3.org/1999/xlink" width="400" height="400" viewBox="0, 0, 400,400"><g id="svgg"><path id="path0" d="M218.929 121.760 L 201.357 131.500 201.345 151.436 L 201.333 171.373 203.932 169.936 C 205.361 169.146,213.386 164.683,221.765 160.018 L 237.000 151.537 237.000 131.768 C 237.000 120.896,236.887 112.004,236.750 112.010 C 236.612 112.015,228.593 116.402,218.929 121.760 M301.167 169.554 C 291.450 174.977,283.424 179.533,283.332 179.678 C 283.045 180.126,283.152 218.998,283.439 219.040 C 283.589 219.061,291.648 214.674,301.349 209.290 L 318.987 199.500 318.994 179.583 C 318.997 168.629,318.962 159.672,318.917 159.680 C 318.871 159.687,310.883 164.130,301.167 169.554 M141.333 171.663 L 123.500 181.596 123.408 201.465 C 123.357 212.392,123.371 221.333,123.440 221.333 C 123.703 221.333,158.521 201.895,158.919 201.526 C 159.249 201.221,159.320 196.925,159.253 181.434 L 159.167 161.731 141.333 171.663 " stroke="none" fill="#fcfcfc" fill-rule="evenodd"></path><path id="path1" d="M237.150 123.500 C 237.150 130.100,237.195 132.847,237.249 129.605 C 237.304 126.363,237.304 120.963,237.250 117.605 C 237.195 114.247,237.151 116.900,237.150 123.500 M296.833 133.781 C 294.817 134.931,292.042 136.477,290.667 137.216 C 287.682 138.821,285.511 140.031,282.899 141.545 C 281.835 142.162,280.909 142.667,280.842 142.667 C 280.774 142.667,279.421 143.417,277.833 144.333 C 276.246 145.250,274.874 146.000,274.784 146.000 C 274.694 146.000,273.993 146.425,273.227 146.944 C 272.006 147.771,268.625 149.692,265.954 151.076 L 265.074 151.532 271.366 161.350 C 274.826 166.749,278.822 173.004,280.245 175.249 C 282.111 178.192,282.987 179.296,283.385 179.205 C 284.345 178.986,319.037 159.610,318.933 159.351 C 318.477 158.220,301.139 131.669,300.862 131.678 C 300.663 131.684,298.850 132.630,296.833 133.781 M157.000 140.203 C 152.508 142.696,148.805 144.761,148.770 144.792 C 148.735 144.823,151.098 148.573,154.020 153.125 L 159.333 161.401 159.333 166.827 L 159.333 172.253 165.750 175.836 C 187.695 188.090,201.197 195.487,201.461 195.400 C 201.627 195.346,211.853 189.683,224.185 182.817 C 236.516 175.951,246.698 170.333,246.810 170.333 C 246.923 170.333,246.974 172.981,246.924 176.217 L 246.833 182.101 224.226 194.685 C 211.792 201.607,201.550 207.339,201.466 207.423 C 201.382 207.506,204.281 209.227,207.907 211.245 C 256.583 238.339,272.833 247.333,273.109 247.333 C 273.477 247.333,275.364 246.293,313.333 225.151 C 328.092 216.933,341.258 209.610,342.592 208.877 L 345.018 207.546 344.092 206.991 C 343.583 206.686,340.992 205.225,338.333 203.745 C 335.675 202.264,330.275 199.254,326.333 197.055 L 319.167 193.058 319.072 196.325 L 318.978 199.592 304.739 207.525 C 296.907 211.889,288.848 216.373,286.830 217.489 L 283.160 219.519 266.830 210.426 C 257.848 205.424,249.753 200.920,248.839 200.416 L 247.179 199.500 247.173 179.537 L 247.167 159.574 248.083 159.254 C 248.588 159.079,249.000 158.791,249.000 158.614 C 249.000 158.438,249.150 158.387,249.333 158.500 C 249.517 158.613,249.667 158.538,249.667 158.333 C 249.667 158.128,249.817 158.053,250.000 158.167 C 250.183 158.280,250.333 158.235,250.333 158.067 C 250.333 157.779,252.359 156.580,260.076 152.299 C 261.860 151.309,263.322 150.404,263.326 150.286 C 263.332 150.098,259.436 147.866,253.167 144.466 C 252.067 143.869,248.092 141.661,244.333 139.558 L 237.500 135.735 237.406 143.617 L 237.313 151.500 231.073 154.968 C 227.641 156.876,219.621 161.338,213.251 164.885 C 206.881 168.432,201.506 171.333,201.307 171.333 C 201.109 171.333,192.936 166.876,183.146 161.428 L 165.345 151.522 165.256 143.597 L 165.167 135.671 157.000 140.203 M87.487 176.000 C 87.487 184.158,87.530 187.496,87.583 183.417 C 87.636 179.338,87.636 172.663,87.583 168.583 C 87.530 164.504,87.487 167.842,87.487 176.000 M159.333 192.956 L 159.333 201.580 153.917 204.579 C 150.938 206.228,143.042 210.617,136.372 214.332 C 129.701 218.046,123.997 221.150,123.696 221.229 C 123.280 221.338,91.830 204.182,88.143 201.836 C 87.495 201.423,87.454 201.102,87.477 196.500 C 87.489 193.806,87.415 191.465,87.311 191.297 C 87.103 190.961,57.938 207.050,57.936 207.502 C 57.936 207.657,66.612 212.604,77.218 218.496 C 87.823 224.387,103.816 233.286,112.758 238.271 C 121.700 243.255,129.178 247.333,129.377 247.333 C 129.576 247.333,138.610 242.396,149.453 236.361 C 160.295 230.326,176.272 221.433,184.956 216.599 C 193.641 211.765,200.766 207.685,200.790 207.532 C 200.814 207.380,194.458 203.706,186.667 199.368 C 178.875 195.030,169.628 189.873,166.117 187.907 C 162.606 185.942,159.643 184.333,159.533 184.333 C 159.423 184.333,159.333 188.214,159.333 192.956 " stroke="none" fill="#84a4dc" fill-rule="evenodd"></path><path id="path2" d="M253.333 76.483 C 253.333 76.575,253.783 76.882,254.333 77.167 C 254.883 77.451,255.333 77.609,255.333 77.517 C 255.333 77.425,254.883 77.118,254.333 76.833 C 253.783 76.549,253.333 76.391,253.333 76.483 M201.333 93.510 C 191.708 98.898,183.706 103.355,183.550 103.414 C 183.297 103.511,186.765 109.033,197.402 125.470 C 199.289 128.386,200.932 130.922,201.052 131.106 C 201.267 131.432,203.896 130.020,226.675 117.347 L 237.184 111.500 228.314 97.685 C 223.435 90.087,219.306 83.835,219.139 83.792 C 218.971 83.749,210.958 88.122,201.333 93.510 M273.070 116.167 L 272.979 145.167 268.518 147.583 C 266.064 148.912,263.906 150.000,263.722 150.000 C 263.539 150.000,263.339 150.127,263.278 150.282 C 263.183 150.524,258.391 153.295,252.083 156.756 C 250.118 157.835,249.777 158.242,251.417 157.554 C 260.930 153.561,270.679 148.794,273.633 146.690 C 274.167 146.311,274.680 146.000,274.775 146.000 C 274.870 146.000,276.246 145.250,277.833 144.333 C 279.421 143.417,280.774 142.667,280.842 142.667 C 280.909 142.667,281.835 142.162,282.899 141.545 C 284.749 140.473,286.310 139.597,289.417 137.887 C 290.196 137.458,292.680 136.092,294.936 134.851 C 297.192 133.610,298.982 132.538,298.913 132.469 C 298.631 132.186,282.813 139.495,278.329 141.979 L 273.500 144.655 273.331 115.911 L 273.161 87.167 273.070 116.167 M319.075 176.230 C 319.034 185.432,319.112 193.030,319.250 193.115 C 319.477 193.256,319.473 180.912,319.241 165.500 C 319.191 162.200,319.117 167.029,319.075 176.230 M223.858 182.982 C 203.325 194.429,201.151 195.565,200.525 195.173 C 200.144 194.935,193.608 191.294,186.000 187.082 C 178.392 182.870,169.767 178.077,166.833 176.430 C 163.900 174.784,161.012 173.184,160.417 172.876 L 159.333 172.316 159.336 178.241 L 159.338 184.167 163.419 186.417 C 184.589 198.094,200.817 207.349,200.731 207.698 C 200.654 208.011,200.760 208.004,201.163 207.670 C 201.457 207.426,211.853 201.573,224.265 194.664 L 246.833 182.101 246.924 176.217 C 246.974 172.981,246.899 170.339,246.758 170.346 C 246.616 170.353,236.311 176.039,223.858 182.982 M102.000 276.667 L 102.000 278.667 104.833 278.667 L 107.667 278.667 107.667 276.667 L 107.667 274.667 104.833 274.667 L 102.000 274.667 102.000 276.667 M246.000 276.667 L 246.000 278.667 248.833 278.667 L 251.667 278.667 251.667 276.667 L 251.667 274.667 248.833 274.667 L 246.000 274.667 246.000 276.667 M264.333 276.667 L 264.333 278.667 267.167 278.667 L 270.000 278.667 270.000 289.156 L 270.000 299.646 266.083 299.739 L 262.167 299.833 262.067 301.750 L 261.967 303.667 272.333 303.667 L 282.700 303.667 282.600 301.750 L 282.500 299.833 279.083 299.738 L 275.667 299.643 275.667 287.155 L 275.667 274.667 270.000 274.667 L 264.333 274.667 264.333 276.667 M299.382 279.928 L 299.500 285.189 298.439 284.128 C 296.265 281.953,291.776 281.661,289.429 283.541 C 284.512 287.479,284.512 298.854,289.429 302.792 C 291.904 304.775,296.311 304.380,298.478 301.980 L 299.667 300.665 299.667 302.166 L 299.667 303.667 302.500 303.667 L 305.333 303.667 305.333 289.167 L 305.333 274.667 302.298 274.667 L 299.263 274.667 299.382 279.928 M76.032 277.750 C 75.875 278.162,75.484 279.438,75.163 280.583 L 74.579 282.667 72.789 282.667 L 71.000 282.667 71.000 284.667 L 71.000 286.667 72.667 286.667 L 74.333 286.667 74.341 293.083 C 74.352 303.420,75.806 304.784,85.809 303.846 L 88.333 303.610 88.333 301.693 L 88.333 299.776 84.875 299.930 C 79.864 300.153,80.000 300.356,80.000 292.667 L 80.000 286.667 83.631 286.667 C 87.650 286.667,87.549 286.727,87.519 284.333 L 87.500 282.833 83.750 282.739 L 80.000 282.645 80.000 279.822 L 80.000 277.000 78.158 277.000 C 76.555 277.000,76.280 277.097,76.032 277.750 M22.333 290.489 L 22.333 303.667 25.020 303.667 L 27.706 303.667 27.603 294.527 C 27.546 289.501,27.516 285.413,27.535 285.444 C 27.554 285.475,29.118 289.587,31.011 294.583 L 34.451 303.667 38.059 303.667 L 41.667 303.667 41.667 290.500 L 41.667 277.333 38.985 277.333 L 36.304 277.333 36.402 286.676 C 36.456 291.814,36.387 295.752,36.249 295.426 C 36.111 295.100,34.520 290.933,32.713 286.167 L 29.427 277.500 25.880 277.405 L 22.333 277.311 22.333 290.489 M190.667 290.523 L 190.667 303.712 198.250 303.606 C 205.304 303.507,205.929 303.449,207.198 302.770 C 212.918 299.709,212.574 291.591,206.657 289.997 L 205.276 289.625 206.720 288.896 C 210.165 287.156,210.733 282.030,207.786 279.263 C 206.016 277.600,204.563 277.333,197.291 277.333 L 190.667 277.333 190.667 290.523 M201.904 282.017 C 205.613 283.309,203.796 287.340,199.389 287.595 L 196.667 287.752 196.667 284.709 L 196.667 281.667 198.784 281.667 C 199.948 281.667,201.352 281.824,201.904 282.017 M51.569 282.844 C 49.615 283.562,48.455 284.539,47.695 286.108 C 46.498 288.580,46.577 288.667,50.000 288.667 C 52.740 288.667,53.000 288.611,53.000 288.024 C 53.000 287.163,54.536 286.000,55.675 286.000 C 57.268 286.000,58.083 286.980,58.259 289.111 L 58.416 291.000 55.268 291.000 C 48.811 291.000,46.000 293.058,46.000 297.784 C 46.000 303.979,53.803 306.432,58.082 301.582 C 59.153 300.369,59.332 300.270,59.332 300.891 C 59.335 302.998,61.835 304.264,65.171 303.847 L 67.000 303.619 67.000 301.976 C 67.000 300.389,66.968 300.333,66.041 300.333 C 64.529 300.333,64.412 299.883,64.269 293.500 C 64.119 286.851,63.803 285.682,61.671 283.888 C 59.818 282.329,54.477 281.777,51.569 282.844 M123.524 282.987 C 115.620 286.162,115.661 300.372,123.582 303.335 C 133.040 306.874,140.845 298.657,137.741 288.431 C 136.215 283.404,129.187 280.713,123.524 282.987 M151.733 282.873 C 151.129 283.181,150.124 284.028,149.500 284.757 L 148.367 286.081 148.141 284.374 L 147.914 282.667 145.290 282.667 L 142.667 282.667 142.667 293.167 L 142.667 303.667 145.500 303.667 L 148.333 303.667 148.333 297.727 C 148.333 289.224,149.324 286.667,152.618 286.667 C 155.579 286.667,155.996 287.930,155.998 296.917 L 156.000 303.667 158.854 303.667 L 161.708 303.667 161.604 295.250 C 161.488 285.839,161.293 284.967,158.924 283.278 C 157.480 282.248,153.413 282.019,151.733 282.873 M315.775 283.031 C 308.327 285.895,307.649 298.967,314.749 302.851 C 317.188 304.186,321.878 304.422,324.714 303.354 C 326.632 302.632,329.667 299.896,329.667 298.889 C 329.667 297.694,324.926 297.663,323.901 298.851 C 321.438 301.705,316.531 299.810,316.082 295.831 L 315.913 294.333 322.937 294.333 C 330.897 294.333,330.377 294.539,330.004 291.534 C 329.084 284.114,322.771 280.342,315.775 283.031 M345.500 282.954 C 344.048 283.628,343.351 284.309,342.588 285.804 L 342.092 286.774 341.852 285.178 C 341.465 282.597,341.558 282.667,338.517 282.667 L 335.771 282.667 336.207 284.917 C 336.490 286.381,336.646 290.046,336.654 295.417 L 336.667 303.667 339.583 303.667 L 342.500 303.667 342.532 298.410 C 342.588 289.242,344.506 286.609,350.734 287.152 L 353.364 287.382 353.265 284.941 L 353.167 282.500 350.000 282.418 C 347.492 282.353,346.556 282.465,345.500 282.954 M363.780 282.812 C 358.810 284.366,357.402 289.650,361.094 292.892 C 362.312 293.961,364.091 294.607,368.191 295.470 C 371.152 296.094,371.615 296.281,372.009 297.017 C 372.882 298.649,371.982 299.751,369.444 300.159 C 366.634 300.611,364.762 299.993,363.544 298.210 C 363.174 297.670,362.853 297.618,361.120 297.819 C 358.158 298.163,357.995 298.348,359.021 300.219 C 361.804 305.295,374.234 305.396,376.891 300.364 C 379.295 295.811,376.910 292.520,369.994 290.850 C 365.425 289.747,364.703 289.428,364.446 288.402 C 363.805 285.850,370.202 285.210,371.610 287.685 C 372.608 289.438,377.402 288.884,376.928 287.070 C 375.948 283.328,369.160 281.129,363.780 282.812 M96.333 284.667 L 96.333 286.667 99.167 286.667 L 102.000 286.667 102.000 293.156 L 102.000 299.646 98.083 299.739 L 94.167 299.833 94.067 301.750 L 93.967 303.667 104.333 303.667 L 114.700 303.667 114.600 301.750 L 114.500 299.833 111.083 299.738 L 107.667 299.643 107.667 291.155 L 107.667 282.667 102.000 282.667 L 96.333 282.667 96.333 284.667 M214.423 290.583 C 214.600 299.003,214.811 300.328,216.247 302.035 C 218.773 305.037,224.234 304.638,226.671 301.274 L 227.667 299.900 227.667 301.783 L 227.667 303.667 230.546 303.667 L 233.425 303.667 233.217 300.917 C 233.103 299.404,233.007 294.679,233.005 290.417 L 233.000 282.667 230.167 282.667 L 227.333 282.667 227.326 289.250 C 227.317 297.563,226.558 299.667,223.571 299.667 C 220.799 299.667,220.333 298.204,220.333 289.493 L 220.333 282.667 217.295 282.667 L 214.257 282.667 214.423 290.583 M240.333 284.667 L 240.333 286.667 243.167 286.667 L 246.000 286.667 246.000 293.156 L 246.000 299.646 242.083 299.739 L 238.167 299.833 238.067 301.750 L 237.967 303.667 248.333 303.667 L 258.700 303.667 258.600 301.750 L 258.500 299.833 255.083 299.738 L 251.667 299.643 251.667 291.155 L 251.667 282.667 246.000 282.667 L 240.333 282.667 240.333 284.667 M322.344 286.506 C 323.348 287.025,324.073 288.136,324.460 289.750 L 324.679 290.667 320.340 290.667 C 316.154 290.667,316.000 290.642,316.000 289.967 C 316.000 286.979,319.532 285.052,322.344 286.506 M130.620 287.178 C 133.094 289.261,132.849 297.667,130.261 299.480 C 127.879 301.148,124.727 299.579,124.042 296.385 C 122.479 289.098,126.393 283.621,130.620 287.178 M297.834 287.199 C 301.141 290.767,299.457 300.000,295.500 300.000 C 293.005 300.000,291.854 297.843,291.854 293.167 C 291.854 287.311,295.015 284.157,297.834 287.199 M203.094 292.448 C 204.669 293.107,205.128 293.843,205.128 295.706 C 205.128 298.450,204.183 299.109,200.004 299.277 L 196.667 299.411 196.667 295.705 L 196.667 292.000 199.344 292.000 C 200.833 292.000,202.498 292.199,203.094 292.448 M58.333 295.350 C 58.333 298.779,54.152 301.591,52.519 299.259 C 50.451 296.307,52.255 294.511,57.750 294.049 C 58.218 294.010,58.333 294.268,58.333 295.350 M119.333 331.592 L 119.333 332.851 118.037 332.727 C 116.246 332.557,115.423 333.095,114.984 334.725 C 113.989 338.422,116.225 341.152,119.022 339.655 C 119.466 339.417,119.667 339.417,119.667 339.655 C 119.667 339.845,119.967 340.000,120.333 340.000 C 120.969 340.000,121.000 339.778,121.000 335.167 L 121.000 330.333 120.167 330.333 C 119.425 330.333,119.333 330.472,119.333 331.592 M238.000 335.167 L 238.000 340.000 238.833 340.000 C 239.652 340.000,239.667 339.954,239.667 337.357 C 239.667 334.715,240.080 333.658,241.107 333.672 C 242.176 333.686,242.453 334.328,242.600 337.139 C 242.732 339.661,242.824 340.000,243.375 340.000 C 243.939 340.000,244.000 339.713,244.000 337.074 C 244.000 333.200,243.578 332.526,241.288 332.746 L 239.667 332.902 239.667 331.618 C 239.667 330.470,239.578 330.333,238.833 330.333 L 238.000 330.333 238.000 335.167 M331.000 330.833 C 331.000 331.144,331.315 331.333,331.833 331.333 L 332.667 331.333 332.667 335.167 L 332.667 339.000 331.333 339.000 C 330.370 339.000,330.000 339.139,330.000 339.500 C 330.000 339.911,330.593 340.000,333.333 340.000 C 336.074 340.000,336.667 339.911,336.667 339.500 C 336.667 339.151,336.315 339.000,335.500 339.000 L 334.333 339.000 334.333 334.667 L 334.333 330.333 332.667 330.333 C 331.407 330.333,331.000 330.456,331.000 330.833 M300.889 330.889 C 300.767 331.011,300.667 331.461,300.667 331.889 C 300.667 332.444,300.476 332.667,300.000 332.667 C 299.630 332.667,299.333 332.889,299.333 333.167 C 299.333 333.444,299.630 333.667,300.000 333.667 C 300.613 333.667,300.667 333.889,300.667 336.433 C 300.667 339.723,300.866 340.000,303.233 340.000 C 304.808 340.000,305.000 339.924,305.000 339.297 C 305.000 338.708,304.861 338.629,304.138 338.811 C 302.324 339.266,302.000 338.863,302.000 336.144 L 302.000 333.667 303.333 333.667 C 304.296 333.667,304.667 333.528,304.667 333.167 C 304.667 332.806,304.296 332.667,303.333 332.667 C 302.074 332.667,302.000 332.611,302.000 331.667 C 302.000 330.726,301.442 330.336,300.889 330.889 M22.667 335.667 L 22.667 340.000 25.833 340.000 C 28.426 340.000,29.000 339.909,29.000 339.500 C 29.000 339.100,28.500 339.000,26.500 339.000 L 24.000 339.000 24.000 337.500 L 24.000 336.000 26.167 336.000 C 27.870 336.000,28.333 335.893,28.333 335.500 C 28.333 335.107,27.870 335.000,26.167 335.000 L 24.000 335.000 24.000 333.667 L 24.000 332.333 26.500 332.333 C 28.500 332.333,29.000 332.233,29.000 331.833 C 29.000 331.424,28.426 331.333,25.833 331.333 L 22.667 331.333 22.667 335.667 M32.498 333.250 C 32.628 333.571,33.264 335.221,33.912 336.917 C 35.861 342.018,36.143 341.822,39.611 332.951 C 39.672 332.795,39.346 332.667,38.886 332.667 C 38.141 332.667,37.946 332.959,37.108 335.332 C 35.957 338.592,36.032 338.592,34.874 335.333 C 34.033 332.965,33.834 332.667,33.094 332.667 C 32.434 332.667,32.311 332.787,32.498 333.250 M44.045 333.452 C 41.017 336.675,45.553 342.447,48.667 339.333 C 49.897 338.103,48.954 337.426,47.520 338.511 C 46.652 339.167,45.885 339.127,45.218 338.390 C 44.012 337.058,44.462 336.667,47.204 336.667 L 49.741 336.667 49.510 335.417 C 49.014 332.729,45.807 331.576,44.045 333.452 M53.937 336.333 C 54.041 339.969,54.049 340.000,54.854 340.000 C 55.635 340.000,55.667 339.913,55.667 337.741 C 55.667 334.837,56.193 334.000,58.019 334.000 C 59.111 334.000,59.333 333.887,59.333 333.333 C 59.333 332.311,56.579 332.369,55.852 333.408 L 55.333 334.148 55.333 333.408 C 55.333 332.862,55.136 332.666,54.583 332.666 C 53.845 332.665,53.835 332.721,53.937 336.333 M63.104 333.083 C 63.200 333.313,63.888 334.888,64.632 336.583 C 66.117 339.966,66.072 341.135,64.443 341.544 C 63.225 341.850,63.453 342.730,64.717 342.604 C 66.107 342.466,66.650 341.672,68.667 336.838 C 70.622 332.149,70.509 332.667,69.577 332.667 C 68.943 332.667,68.667 333.071,67.866 335.167 C 67.341 336.542,66.816 337.667,66.700 337.667 C 66.583 337.667,66.058 336.542,65.533 335.167 C 64.700 332.986,64.473 332.667,63.754 332.667 C 63.222 332.667,62.991 332.815,63.104 333.083 M74.641 333.527 C 73.472 334.771,73.472 337.895,74.641 339.140 C 76.829 341.468,80.135 339.793,80.155 336.346 C 80.175 332.893,76.839 331.187,74.641 333.527 M84.333 336.333 L 84.333 340.000 85.167 340.000 C 85.985 340.000,86.000 339.954,86.000 337.357 C 86.000 334.715,86.413 333.658,87.440 333.672 C 88.509 333.686,88.786 334.328,88.933 337.139 C 89.066 339.661,89.158 340.000,89.708 340.000 C 90.558 340.000,90.645 334.593,89.814 333.408 C 89.184 332.507,87.004 332.376,86.190 333.190 C 85.714 333.667,85.667 333.667,85.667 333.190 C 85.667 332.889,85.384 332.667,85.000 332.667 C 84.374 332.667,84.333 332.889,84.333 336.333 M95.045 333.452 C 92.017 336.675,96.553 342.447,99.667 339.333 C 100.897 338.103,99.954 337.426,98.520 338.511 C 97.652 339.167,96.885 339.127,96.218 338.390 C 95.012 337.058,95.462 336.667,98.204 336.667 L 100.741 336.667 100.510 335.417 C 100.014 332.729,96.807 331.576,95.045 333.452 M126.045 333.452 C 123.017 336.675,127.553 342.447,130.667 339.333 C 131.897 338.103,130.954 337.426,129.520 338.511 C 128.652 339.167,127.885 339.127,127.218 338.390 C 126.012 337.058,126.462 336.667,129.204 336.667 L 131.741 336.667 131.510 335.417 C 131.014 332.729,127.807 331.576,126.045 333.452 M136.218 333.276 C 134.926 334.704,135.654 336.105,138.057 336.814 C 139.689 337.296,140.449 338.172,139.667 338.671 C 138.908 339.154,137.466 339.062,137.000 338.500 C 136.535 337.939,135.333 337.819,135.333 338.333 C 135.333 339.238,136.706 340.000,138.333 340.000 C 142.236 340.000,142.461 336.670,138.633 335.562 C 137.545 335.247,137.167 334.969,137.167 334.485 C 137.167 333.689,138.431 333.428,139.506 334.003 C 140.822 334.708,141.648 334.315,140.746 333.413 C 139.769 332.436,137.053 332.354,136.218 333.276 M146.378 333.452 C 143.351 336.675,147.887 342.447,151.000 339.333 C 152.231 338.103,151.287 337.426,149.853 338.511 C 148.985 339.167,148.218 339.127,147.552 338.390 C 146.345 337.058,146.796 336.667,149.537 336.667 L 152.074 336.667 151.843 335.417 C 151.347 332.729,148.141 331.576,146.378 333.452 M156.604 336.333 C 156.707 339.969,156.715 340.000,157.521 340.000 C 158.302 340.000,158.333 339.913,158.333 337.741 C 158.333 334.837,158.860 334.000,160.686 334.000 C 161.778 334.000,162.000 333.887,162.000 333.333 C 162.000 332.311,159.246 332.369,158.519 333.408 L 158.000 334.148 158.000 333.408 C 158.000 332.862,157.803 332.666,157.250 332.666 C 156.511 332.665,156.502 332.721,156.604 336.333 M165.831 333.250 C 165.961 333.571,166.598 335.221,167.246 336.917 C 169.194 342.018,169.476 341.822,172.944 332.951 C 173.006 332.795,172.679 332.667,172.219 332.667 C 171.475 332.667,171.280 332.959,170.442 335.332 C 169.290 338.592,169.366 338.592,168.208 335.333 C 167.366 332.965,167.167 332.667,166.428 332.667 C 165.767 332.667,165.644 332.787,165.831 333.250 M177.045 333.452 C 174.017 336.675,178.553 342.447,181.667 339.333 C 182.897 338.103,181.954 337.426,180.520 338.511 C 179.652 339.167,178.885 339.127,178.218 338.390 C 177.012 337.058,177.462 336.667,180.204 336.667 L 182.741 336.667 182.510 335.417 C 182.014 332.729,178.807 331.576,177.045 333.452 M187.552 333.276 C 186.259 334.704,186.987 336.105,189.390 336.814 C 191.023 337.296,191.782 338.172,191.000 338.671 C 190.242 339.154,188.800 339.062,188.333 338.500 C 187.868 337.939,186.667 337.819,186.667 338.333 C 186.667 339.238,188.039 340.000,189.667 340.000 C 193.570 340.000,193.794 336.670,189.966 335.562 C 188.878 335.247,188.500 334.969,188.500 334.485 C 188.500 333.689,189.765 333.428,190.839 334.003 C 192.156 334.708,192.981 334.315,192.080 333.413 C 191.102 332.436,188.386 332.354,187.552 333.276 M208.000 333.333 C 207.633 333.700,207.333 334.150,207.333 334.333 C 207.333 334.865,208.909 334.718,209.121 334.167 C 209.599 332.921,211.667 334.021,211.667 335.522 C 211.667 335.601,210.917 335.667,210.000 335.667 C 208.044 335.667,207.000 336.461,207.000 337.948 C 207.000 339.727,209.896 340.830,211.017 339.479 C 211.410 339.006,211.477 339.006,211.742 339.479 C 212.125 340.165,214.000 340.182,214.000 339.500 C 214.000 339.225,213.775 339.000,213.500 339.000 C 213.100 339.000,213.000 338.500,213.000 336.500 C 213.000 333.395,212.462 332.667,210.167 332.667 C 209.111 332.667,208.469 332.864,208.000 333.333 M228.435 333.471 C 226.015 335.553,227.621 340.000,230.794 340.000 C 232.221 340.000,233.667 339.025,233.667 338.062 C 233.667 337.430,232.534 337.605,231.911 338.333 C 230.590 339.876,229.000 338.784,229.000 336.333 C 229.000 333.883,230.590 332.790,231.911 334.333 C 232.575 335.109,233.667 335.221,233.667 334.513 C 233.667 332.722,230.126 332.017,228.435 333.471 M249.000 333.333 C 248.633 333.700,248.333 334.150,248.333 334.333 C 248.333 334.865,249.909 334.718,250.121 334.167 C 250.599 332.921,252.667 334.021,252.667 335.522 C 252.667 335.601,251.917 335.667,251.000 335.667 C 249.044 335.667,248.000 336.461,248.000 337.948 C 248.000 339.727,250.896 340.830,252.017 339.479 C 252.410 339.006,252.477 339.006,252.742 339.479 C 253.125 340.165,255.000 340.182,255.000 339.500 C 255.000 339.225,254.775 339.000,254.500 339.000 C 254.100 339.000,254.000 338.500,254.000 336.500 C 254.000 333.395,253.462 332.667,251.167 332.667 C 250.111 332.667,249.469 332.864,249.000 333.333 M258.333 336.333 L 258.333 340.000 259.167 340.000 C 259.985 340.000,260.000 339.954,260.000 337.357 C 260.000 334.715,260.413 333.658,261.440 333.672 C 262.509 333.686,262.786 334.328,262.933 337.139 C 263.066 339.661,263.158 340.000,263.708 340.000 C 264.558 340.000,264.645 334.593,263.814 333.408 C 263.184 332.507,261.004 332.376,260.190 333.190 C 259.714 333.667,259.667 333.667,259.667 333.190 C 259.667 332.889,259.384 332.667,259.000 332.667 C 258.374 332.667,258.333 332.889,258.333 336.333 M269.435 333.471 C 267.015 335.553,268.621 340.000,271.794 340.000 C 273.221 340.000,274.667 339.025,274.667 338.062 C 274.667 337.430,273.534 337.605,272.911 338.333 C 271.590 339.876,270.000 338.784,270.000 336.333 C 270.000 333.883,271.590 332.790,272.911 334.333 C 273.575 335.109,274.667 335.221,274.667 334.513 C 274.667 332.722,271.126 332.017,269.435 333.471 M279.712 333.452 C 276.684 336.675,281.220 342.447,284.333 339.333 C 285.564 338.103,284.620 337.426,283.186 338.511 C 282.318 339.167,281.552 339.127,280.885 338.390 C 279.679 337.058,280.129 336.667,282.870 336.667 L 285.408 336.667 285.177 335.417 C 284.681 332.729,281.474 331.576,279.712 333.452 M310.308 333.527 C 308.143 335.831,309.662 340.000,312.667 340.000 C 314.922 340.000,315.807 338.976,315.822 336.346 C 315.842 332.893,312.506 331.187,310.308 333.527 M341.045 333.452 C 338.017 336.675,342.553 342.447,345.667 339.333 C 346.897 338.103,345.954 337.426,344.520 338.511 C 343.652 339.167,342.885 339.127,342.218 338.390 C 341.012 337.058,341.462 336.667,344.204 336.667 L 346.741 336.667 346.510 335.417 C 346.014 332.729,342.807 331.576,341.045 333.452 M351.333 333.333 C 350.967 333.700,350.667 334.150,350.667 334.333 C 350.667 334.865,352.242 334.718,352.454 334.167 C 352.932 332.921,355.000 334.021,355.000 335.522 C 355.000 335.601,354.250 335.667,353.333 335.667 C 351.377 335.667,350.333 336.461,350.333 337.948 C 350.333 339.727,353.229 340.830,354.351 339.479 C 354.743 339.006,354.810 339.006,355.075 339.479 C 355.459 340.165,357.333 340.182,357.333 339.500 C 357.333 339.225,357.108 339.000,356.833 339.000 C 356.433 339.000,356.333 338.500,356.333 336.500 C 356.333 333.395,355.795 332.667,353.500 332.667 C 352.444 332.667,351.802 332.864,351.333 333.333 M361.604 336.333 C 361.707 339.969,361.715 340.000,362.521 340.000 C 363.302 340.000,363.333 339.913,363.333 337.741 C 363.333 334.837,363.860 334.000,365.686 334.000 C 366.778 334.000,367.000 333.887,367.000 333.333 C 367.000 332.311,364.246 332.369,363.519 333.408 L 363.000 334.148 363.000 333.408 C 363.000 332.862,362.803 332.666,362.250 332.666 C 361.511 332.665,361.502 332.721,361.604 336.333 M371.333 336.333 L 371.333 340.000 372.167 340.000 C 372.985 340.000,373.000 339.954,373.000 337.357 C 373.000 334.715,373.413 333.658,374.440 333.672 C 375.509 333.686,375.786 334.328,375.933 337.139 C 376.066 339.661,376.158 340.000,376.708 340.000 C 377.558 340.000,377.645 334.593,376.814 333.408 C 376.184 332.507,374.004 332.376,373.190 333.190 C 372.714 333.667,372.667 333.667,372.667 333.190 C 372.667 332.889,372.384 332.667,372.000 332.667 C 371.374 332.667,371.333 332.889,371.333 336.333 M47.476 334.190 C 48.485 335.199,48.123 335.667,46.333 335.667 C 45.111 335.667,44.667 335.540,44.667 335.190 C 44.667 334.519,45.599 333.667,46.333 333.667 C 46.674 333.667,47.188 333.902,47.476 334.190 M78.143 334.190 C 79.403 335.451,78.560 339.000,77.000 339.000 C 75.917 339.000,75.333 338.066,75.333 336.333 C 75.333 334.601,75.917 333.667,77.000 333.667 C 77.340 333.667,77.855 333.902,78.143 334.190 M98.476 334.190 C 99.485 335.199,99.123 335.667,97.333 335.667 C 96.111 335.667,95.667 335.540,95.667 335.190 C 95.667 334.519,96.599 333.667,97.333 333.667 C 97.674 333.667,98.188 333.902,98.476 334.190 M118.933 334.067 C 119.531 334.664,119.442 337.844,118.810 338.476 C 117.521 339.765,116.333 338.737,116.333 336.333 C 116.333 334.012,117.693 332.826,118.933 334.067 M129.476 334.190 C 130.485 335.199,130.123 335.667,128.333 335.667 C 127.111 335.667,126.667 335.540,126.667 335.190 C 126.667 334.519,127.599 333.667,128.333 333.667 C 128.674 333.667,129.188 333.902,129.476 334.190 M149.810 334.190 C 150.818 335.199,150.456 335.667,148.667 335.667 C 147.444 335.667,147.000 335.540,147.000 335.190 C 147.000 334.519,147.932 333.667,148.667 333.667 C 149.007 333.667,149.521 333.902,149.810 334.190 M180.476 334.190 C 181.485 335.199,181.123 335.667,179.333 335.667 C 178.111 335.667,177.667 335.540,177.667 335.190 C 177.667 334.519,178.599 333.667,179.333 333.667 C 179.674 333.667,180.188 333.902,180.476 334.190 M283.143 334.190 C 284.151 335.199,283.789 335.667,282.000 335.667 C 280.778 335.667,280.333 335.540,280.333 335.190 C 280.333 334.519,281.266 333.667,282.000 333.667 C 282.340 333.667,282.855 333.902,283.143 334.190 M313.810 334.190 C 315.070 335.451,314.227 339.000,312.667 339.000 C 311.584 339.000,311.000 338.066,311.000 336.333 C 311.000 334.601,311.584 333.667,312.667 333.667 C 313.007 333.667,313.521 333.902,313.810 334.190 M344.476 334.190 C 345.485 335.199,345.123 335.667,343.333 335.667 C 342.111 335.667,341.667 335.540,341.667 335.190 C 341.667 334.519,342.599 333.667,343.333 333.667 C 343.674 333.667,344.188 333.902,344.476 334.190 M211.667 336.955 C 211.667 337.676,210.216 339.030,209.545 338.935 C 208.713 338.816,208.361 337.399,209.054 336.959 C 209.640 336.588,211.667 336.585,211.667 336.955 M252.667 336.955 C 252.667 337.676,251.216 339.030,250.545 338.935 C 249.713 338.816,249.361 337.399,250.054 336.959 C 250.640 336.588,252.667 336.585,252.667 336.955 M355.000 336.955 C 355.000 337.676,353.549 339.030,352.878 338.935 C 352.047 338.816,351.694 337.399,352.388 336.959 C 352.973 336.588,355.000 336.585,355.000 336.955 " stroke="none" fill="#546cac" fill-rule="evenodd"></path><path id="path3" d="M165.092 67.597 L 129.350 87.500 129.342 113.190 L 129.333 138.880 126.750 139.994 C 124.422 140.998,90.969 159.358,90.167 160.071 C 89.760 160.433,90.444 160.147,98.637 156.526 C 102.195 154.953,105.217 153.667,105.352 153.667 C 105.487 153.667,107.740 157.004,110.357 161.083 C 120.526 176.932,123.418 181.321,123.622 181.214 C 132.818 176.410,158.994 161.464,158.853 161.098 C 158.753 160.837,156.420 157.115,153.669 152.826 C 150.918 148.537,148.667 144.960,148.667 144.877 C 148.667 144.794,152.411 142.650,156.988 140.113 L 165.309 135.500 165.404 123.394 L 165.500 111.289 168.500 110.034 C 178.791 105.730,185.422 102.391,201.715 93.310 C 211.272 87.983,219.214 83.748,219.365 83.898 C 219.515 84.049,223.620 90.373,228.486 97.953 L 237.333 111.734 237.333 123.620 L 237.333 135.505 245.417 139.993 C 249.862 142.461,255.734 145.723,258.464 147.241 C 264.402 150.541,263.136 150.498,268.518 147.583 L 272.979 145.167 272.990 116.333 L 273.000 87.500 264.250 82.624 C 219.653 57.771,201.817 47.894,201.366 47.803 C 201.073 47.743,184.750 56.650,165.092 67.597 " stroke="none" fill="#304875" fill-rule="evenodd"></path><path id="path4" d="M174.333 107.645 L 165.500 111.580 165.414 131.547 L 165.328 151.513 183.137 161.423 C 192.932 166.874,201.033 171.333,201.140 171.333 C 201.246 171.333,201.333 162.442,201.333 151.574 L 201.333 131.815 196.406 124.158 C 193.697 119.946,189.701 113.725,187.527 110.333 C 185.354 106.942,183.483 104.064,183.371 103.938 C 183.259 103.812,179.192 105.481,174.333 107.645 M237.145 143.500 C 237.144 148.083,237.191 150.005,237.249 147.769 C 237.306 145.534,237.307 141.784,237.249 139.436 C 237.192 137.088,237.145 138.917,237.145 143.500 M256.022 155.648 L 247.212 159.594 247.196 179.537 L 247.181 199.480 249.174 200.606 C 250.270 201.226,258.067 205.561,266.500 210.239 C 274.933 214.917,282.134 218.932,282.502 219.160 C 283.156 219.566,283.651 179.904,282.999 179.333 C 282.814 179.172,272.697 163.509,267.658 155.583 C 266.289 153.429,265.093 151.675,265.001 151.684 C 264.909 151.694,260.868 153.478,256.022 155.648 M96.426 157.612 L 87.686 161.500 87.625 176.167 C 87.591 184.233,87.541 193.212,87.515 196.119 C 87.468 201.113,87.503 201.429,88.150 201.840 C 89.944 202.982,123.113 221.331,123.209 221.236 C 123.269 221.175,123.342 212.272,123.370 201.450 L 123.420 181.774 114.673 168.137 C 109.863 160.637,105.755 154.326,105.547 154.112 C 105.259 153.819,103.041 154.670,96.426 157.612 " stroke="none" fill="#b3e3fb" fill-rule="evenodd"></path></g></svg>